{"title":"Drinking Buddies 2013 WEBRip 480p x264 AAC - VYTO [P2PDL]","uid":8746837,"size":313421665,"categoryP":"video","categoryS":"movies","magnet":"?xt=urn:btih:f62e269160c313c21d8d681c369c592d079076da&amp;dn=Drinking+Buddies+2013+WEBRip+480p+x264+AAC+-+VYTO+%5BP2PDL%5D&amp;tr=udp%3A%2F%2Ftracker.openbittorrent.com%3A80&amp;tr=udp%3A%2F%2Fopen.demonii.com%3A1337&amp;tr=udp%3A%2F%2Ftracker.coppersurfer.tk%3A6969&amp;tr=udp%3A%2F%2Fexodus.desync.com%3A6969","seeders":1,"leechers":0,"uploader":"Vitamin_X","files":-1,"time":1374939206,"description":"_______ Visit us at our Semi Public Bittorrent Community ________\n  &lt;a href=&quot;\nhttp://p2pdl.com&quot; rel=&quot;nofollow&quot; target=&quot;_NEW&quot;&gt;\nhttp://p2pdl.com&lt;/a&gt;  _____________________________ &lt;a href=&quot; http://p2pdl.com&quot; rel=&quot;nofollow&quot; target=&quot;_NEW&quot;&gt; http://p2pdl.com&lt;/a&gt;\n\n\nDrinking Buddies 2013 WEBRip 480p x264 AAC - VYTO\n\nGenre: Comedy\nPlot: Luke and Kate are co-workers at a Chicago brewery, \nwhere they spend their days drinking and flirting. They're \nperfect for each other, except that they're both in relationships. \nLuke is in the midst of marriage talks with his girlfriend of six \nyears, Kate is playing it cool with her music producer boyfriend \nChris. But you know what makes the line between &quot;friends&quot; and &quot;more \nthan friends&quot; really blurry? Beer.  \nDirector: Joe Swanberg\nStars: Olivia Wilde, Jake Johnson, Anna Kendrick \nRated: Rated R for language throughout\n\nIMDb: &lt;a href=&quot;\nhttp://www.imdb.com/title/tt2265398/&quot; rel=&quot;nofollow&quot; target=&quot;_NEW&quot;&gt;\nhttp://www.imdb.com/title/tt2265398/&lt;/a&gt;\n\nGeneral\nFormat                         : MPEG-4\nFile size                      : 296 MiB\nDuration                       : 1h 30mn\nOverall bit rate mode          : Variable\nOverall bit rate               : 458 Kbps\n\nVideo\nFormat                         : AVC\nBit rate                       : 415 Kbps\nWidth                          : 720 pixels\nHeight                         : 304 pixels\nDisplay aspect ratio           : 2.35:1\nFrame rate mode                : Constant\nFrame rate                     : 23.976 fps\nBit depth                      : 10 bits\nStream size                    : 268 MiB (91%)\nWriting library                : x264 core 130 r2273 b3065e6\n\nAudio\nFormat                         : AAC\nBit rate                       : 40.0 Kbps\nChannel(s)                     : 2 channels\nChannel positions              : Front: L R\nSampling rate                  : 48.0 KHz / 24.0 KHz\nStream size                    : 25.9 MiB (9%)\nLanguage                       : English\n\nSubtitle                       : No\nSource                         : WEBRip-FooKaS\n &lt;a href=&quot;\nhttp://ultraimg.com/images/zgp8R.png&quot; rel=&quot;nofollow&quot; target=&quot;_NEW&quot;&gt;\nhttp://ultraimg.com/images/zgp8R.png&lt;/a&gt; &lt;a href=&quot;\nhttp://ultraimg.com/images/EgK1W.png&quot; rel=&quot;nofollow&quot; target=&quot;_NEW&quot;&gt;\nhttp://ultraimg.com/images/EgK1W.png&lt;/a&gt; &lt;a href=&quot;\nhttp://ultraimg.com/images/6vxO8.png&quot; rel=&quot;nofollow&quot; target=&quot;_NEW&quot;&gt;\nhttp://ultraimg.com/images/6vxO8.png&lt;/a&gt; &lt;a href=&quot;\nhttp://ultraimg.com/images/oNsL.png&quot; rel=&quot;nofollow&quot; target=&quot;_NEW&quot;&gt;\nhttp://ultraimg.com/images/oNsL.png&lt;/a&gt; &lt;a href=&quot;\nhttp://ultraimg.com/images/CtHMZ.png&quot; rel=&quot;nofollow&quot; target=&quot;_NEW&quot;&gt;\nhttp://ultraimg.com/images/CtHMZ.png&lt;/a&gt; &lt;a href=&quot;\nhttp://ultraimg.com/images/AiVoy.png&quot; rel=&quot;nofollow&quot; target=&quot;_NEW&quot;&gt;\nhttp://ultraimg.com/images/AiVoy.png&lt;/a&gt; &lt;a href=&quot;\nhttp://ultraimg.com/images/kloZ4.png&quot; rel=&quot;nofollow&quot; target=&quot;_NEW&quot;&gt;\nhttp://ultraimg.com/images/kloZ4.png&lt;/a&gt;\n\n----------------------------------------------------------------------------------------------------\n\n\nEncoded using revolutionary 10bit encoding, which enables us to provide you more crispier \nand sharper images at small sizes, just make sure you follow our instructions without a fault.\nRecommend to you to use latest version of VLC player. Install K-Lite Codec Pack or shark007 codecs\nin case of any kind of problem in playback (For non-VLC Media Player users). Alternatively, install\nCore AVC codecs, the fastest decoder that there is coupled with Community Center Codec Pack and play\non Windows Media Player Classic. Check sample to be sure.\nEnjoy!\n\nEncoder Notes:Looking For Early Access To Anything You Can Provide DVDScr, R5, DVDR, BluRay, Direct\nAudio, Music Releases and Seedboxes. We require dedicated servers, so as to do more \nand fast releases of movies.\nIf You Got anything to offer please contact us at &quot;&lt;a class=&quot;__cf_email__&quot; href=&quot;/cdn-cgi/l/email-protection&quot; data-cfemail=&quot;fc8c8e9bbc94898f94d29f9391&quot;&gt;[email&amp;#160;protected]&lt;/a&gt;&lt;script cf-hash='f9e31' type=&quot;text/javascript&quot;&gt;\n/* &lt;![CDATA[ */!function(){try{var t=&quot;currentScript&quot;in document?document.currentScript:function(){for(var t=document.getElementsByTagName(&quot;script&quot;),e=t.length;e--;)if(t[e].getAttribute(&quot;cf-hash&quot;))return t[e]}();if(t&amp;&amp;t.previousSibling){var e,r,n,i,c=t.previousSibling,a=c.getAttribute(&quot;data-cfemail&quot;);if(a){for(e=&quot;&quot;,r=parseInt(a.substr(0,2),16),n=2;a.length-n;n+=2)i=parseInt(a.substr(n,2),16)^r,e+=String.fromCharCode(i);e=document.createTextNode(e),c.parentNode.replaceChild(e,c)}}}catch(u){}}();/* ]]&gt; */&lt;/script&gt;&quot;.\n\nFace book Fan Page:  \nSearch P2PDL on FB.","torrent":{"xt":"urn:btih:f62e269160c313c21d8d681c369c592d079076da","amp;dn":"Drinking+Buddies+2013+WEBRip+480p+x264+AAC+-+VYTO+%5BP2PDL%5D","amp;tr":["udp%3A%2F%2Ftracker.openbittorrent.com%3A80","udp%3A%2F%2Fopen.demonii.com%3A1337","udp%3A%2F%2Ftracker.coppersurfer.tk%3A6969","udp%3A%2F%2Fexodus.desync.com%3A6969"],"infoHash":"f62e269160c313c21d8d681c369c592d079076da","infoHashBuffer":{"type":"Buffer","data":[246,46,38,145,96,195,19,194,29,141,104,28,54,156,89,45,7,144,118,218]},"announce":[],"urlList":[]}}